{"title":"The Descent 2 2009 DVDRip Xvid LKRG","uid":10832494,"size":1038518091,"categoryP":"video","categoryS":"movies","magnet":"?xt=urn:btih:fcd4ddf5f10358c1e1e766044efe66b8e392ea5c&amp;dn=The+Descent+2+2009+DVDRip+Xvid+LKRG&amp;tr=udp%3A%2F%2Ftracker.openbittorrent.com%3A80&amp;tr=udp%3A%2F%2Fopen.demonii.com%3A1337&amp;tr=udp%3A%2F%2Ftracker.coppersurfer.tk%3A6969&amp;tr=udp%3A%2F%2Fexodus.desync.com%3A6969","seeders":9,"leechers":0,"uploader":".BONE.","files":2,"time":1408637436,"description":"PLOT\n\nRefusing to believe her story about cave-dwelling monsters, the sole survivor of a spelunking exploration gone horribly\nwrong is forced to follow the authorities back into the caves where something awaits.\n\nRuntime ..........: 1h 33mn\nFile Size ........: 990 MB\nResolution .......: 720 x 352 &lt;a href=&quot;\nhttp://www.imdb.com/title/tt1073105/&quot; rel=&quot;nofollow&quot; target=&quot;_NEW&quot;&gt;\nhttp://www.imdb.com/title/tt1073105/&lt;/a&gt;\nGenre ............: Horror,Adventure,Thriller\nLanguage .........: English\nSubtitles ........: None\nComplete name : The Descent 2 2009 DVDRip Xvid LKRGTDescent2_LKRG.avi\nFormat : AVI\nFormat/Info : Audio Video Interleave\nFile size : 990 MiB\nDuration : 1h 33mn\nOverall bit rate : 1 477 Kbps\nWriting application : VirtualDubMod 1.5.10.2 (build 2540/release)\nWriting library : VirtualDubMod build 2540/release\nVideo\nID : 0\nFormat : MPEG-4 Visual\nFormat profile : Advanced Simple@L5\nFormat settings, BVOP : 2\nFormat settings, QPel : No\nFormat settings, GMC : No warppoints\nFormat settings, Matrix : Default (H.263)\nMuxing mode : Packed bitstream\nCodec ID : XVID\nCodec ID/Hint : XviD\nDuration : 1h 33mn\nBit rate : 1 019 Kbps\nWidth : 720 pixels\nHeight : 352 pixels\nDisplay aspect ratio : 2.479\nFrame rate : 23.976 fps\nColor space : YUV\nChroma subsampling : 4:2:0\nBit depth : 8 bits\nScan type : Progressive\nCompression mode : Lossy\nBits/(Pixel*Frame) : 0.168\nStream size : 684 MiB (69%)\nWriting library : XviD 1.2.1 (UTC 2008-12-04)\nAudio\nID : 1\nFormat : AC-3\nFormat/Info : Audio Coding 3\nMode extension : CM (complete main)\nFormat settings, Endianness : Big\nCodec ID : 2000\nDuration : 1h 33mn\nBit rate mode : Constant\nBit rate : 448 Kbps\nChannel(s) : 6 channels\nChannel positions : Front: L C R, Side: L R, LFE\nSampling rate : 48.0 KHz\nBit depth : 16 bits\nCompression mode : Lossy\nStream size : 300 MiB (30%)\nAlignment : Split accross interleaves\nInterleave, duration : 42 ms (1.00 video frame)\nInterleave, preload duration : 500 ms\n","torrent":{"xt":"urn:btih:fcd4ddf5f10358c1e1e766044efe66b8e392ea5c","amp;dn":"The+Descent+2+2009+DVDRip+Xvid+LKRG","amp;tr":["udp%3A%2F%2Ftracker.openbittorrent.com%3A80","udp%3A%2F%2Fopen.demonii.com%3A1337","udp%3A%2F%2Ftracker.coppersurfer.tk%3A6969","udp%3A%2F%2Fexodus.desync.com%3A6969"],"infoHash":"fcd4ddf5f10358c1e1e766044efe66b8e392ea5c","infoHashBuffer":{"type":"Buffer","data":[252,212,221,245,241,3,88,193,225,231,102,4,78,254,102,184,227,146,234,92]},"announce":[],"urlList":[]}}